# xmcd
#
# Track frame offsets: 
#        182
#        22077
#        45827
#        66277
#        90442
#        111302
#        133977
#        159262
#        179950
#        202865
#
# Disc length: 2974 seconds
#
# Revision: 1
# Processed by: cddbd v1.4PL0 Copyright (c) Steve Scherf et al.
# Submitted via: ExactAudioCopy v0.90b4
#
DISCID=870b9c0a
DTITLE=张信哲 - 宽容
DYEAR=1995
DGENRE=Pop
TTITLE0=不要对他说
TTITLE1=宽容
TTITLE2=只有你
TTITLE3=不回首
TTITLE4=爱会看见
TTITLE5=过火
TTITLE6=忘情忘爱
TTITLE7=假装有你
TTITLE8=日出之前请将悲伤终结
TTITLE9=真爱一生
EXTD=
EXTT0=
EXTT1=
EXTT2=
EXTT3=
EXTT4=
EXTT5=
EXTT6=
EXTT7=
EXTT8=
EXTT9=
PLAYORDER=
